<svg width="746" height="160" viewBox="0 0 746 160" fill="none" xmlns="http://www.w3.org/2000/svg">
<path d="M21.3054 70L0.714489 0.181816H21.8509L31.3963 43.1364H31.9418L43.2599 0.181816H59.8963L71.2145 43.2727H71.7599L81.3054 0.181816H102.442L81.8509 70H63.7145L51.8509 31H51.3054L39.4418 70H21.3054ZM127.848 70.9545C122.257 70.9545 117.439 69.8864 113.393 67.75C109.371 65.5909 106.268 62.5 104.087 58.4773C101.928 54.4318 100.848 49.5909 100.848 43.9545C100.848 38.5455 101.939 33.8182 104.121 29.7727C106.303 25.7273 109.382 22.5795 113.359 20.3295C117.337 18.0795 122.03 16.9545 127.439 16.9545C131.393 16.9545 134.973 17.5682 138.178 18.7955C141.382 20.0227 144.121 21.8068 146.393 24.1477C148.666 26.4659 150.416 29.2841 151.643 32.6023C152.871 35.9205 153.484 39.6591 153.484 43.8182V48.1818H106.712V37.8182H136.166C136.143 36.3182 135.757 35 135.007 33.8636C134.28 32.7045 133.291 31.8068 132.041 31.1705C130.814 30.5114 129.416 30.1818 127.848 30.1818C126.325 30.1818 124.928 30.5114 123.655 31.1705C122.382 31.8068 121.359 32.6932 120.587 33.8295C119.837 34.9659 119.439 36.2955 119.393 37.8182V49C119.393 50.6818 119.746 52.1818 120.45 53.5C121.155 54.8182 122.166 55.8523 123.484 56.6023C124.803 57.3523 126.393 57.7273 128.257 57.7273C129.553 57.7273 130.734 57.5455 131.803 57.1818C132.893 56.8182 133.825 56.2955 134.598 55.6136C135.371 54.9091 135.939 54.0682 136.303 53.0909H153.484C152.893 56.7273 151.496 59.8864 149.291 62.5682C147.087 65.2273 144.166 67.2955 140.53 68.7727C136.916 70.2273 132.689 70.9545 127.848 70.9545ZM179.982 0.181816V70H161.163V0.181816H179.982ZM214.797 70.9545C209.115 70.9545 204.251 69.8295 200.206 67.5795C196.161 65.3068 193.058 62.1477 190.899 58.1023C188.74 54.0341 187.661 49.3182 187.661 43.9545C187.661 38.5909 188.74 33.8864 190.899 29.8409C193.058 25.7727 196.161 22.6136 200.206 20.3636C204.251 18.0909 209.115 16.9545 214.797 16.9545C219.933 16.9545 224.376 17.8864 228.126 19.75C231.899 21.5909 234.82 24.2045 236.888 27.5909C238.956 30.9545 240.001 34.9091 240.024 39.4545H222.57C222.32 36.7045 221.524 34.6136 220.183 33.1818C218.865 31.7273 217.161 31 215.07 31C213.433 31 212.001 31.4773 210.774 32.4318C209.547 33.3636 208.592 34.7841 207.911 36.6932C207.229 38.5795 206.888 40.9545 206.888 43.8182C206.888 46.6818 207.229 49.0682 207.911 50.9773C208.592 52.8636 209.547 54.2841 210.774 55.2386C212.001 56.1705 213.433 56.6364 215.07 56.6364C216.456 56.6364 217.683 56.3182 218.751 55.6818C219.82 55.0227 220.683 54.0682 221.342 52.8182C222.024 51.5455 222.433 50 222.57 48.1818H240.024C239.956 52.7955 238.899 56.8182 236.854 60.25C234.808 63.6591 231.911 66.2955 228.161 68.1591C224.433 70.0227 219.979 70.9545 214.797 70.9545ZM273.016 70.9545C267.334 70.9545 262.47 69.8295 258.425 67.5795C254.379 65.3068 251.277 62.1477 249.118 58.1023C246.959 54.0341 245.879 49.3182 245.879 43.9545C245.879 38.5909 246.959 33.8864 249.118 29.8409C251.277 25.7727 254.379 22.6136 258.425 20.3636C262.47 18.0909 267.334 16.9545 273.016 16.9545C278.697 16.9545 283.561 18.0909 287.607 20.3636C291.652 22.6136 294.754 25.7727 296.913 29.8409C299.072 33.8864 300.152 38.5909 300.152 43.9545C300.152 49.3182 299.072 54.0341 296.913 58.1023C294.754 62.1477 291.652 65.3068 287.607 67.5795C283.561 69.8295 278.697 70.9545 273.016 70.9545ZM273.152 57.0455C274.743 57.0455 276.118 56.5114 277.277 55.4432C278.436 54.375 279.334 52.8523 279.97 50.875C280.607 48.8977 280.925 46.5455 280.925 43.8182C280.925 41.0682 280.607 38.7159 279.97 36.7614C279.334 34.7841 278.436 33.2614 277.277 32.1932C276.118 31.125 274.743 30.5909 273.152 30.5909C271.47 30.5909 270.027 31.125 268.822 32.1932C267.618 33.2614 266.697 34.7841 266.061 36.7614C265.425 38.7159 265.107 41.0682 265.107 43.8182C265.107 46.5455 265.425 48.8977 266.061 50.875C266.697 52.8523 267.618 54.375 268.822 55.4432C270.027 56.5114 271.47 57.0455 273.152 57.0455ZM307.788 70V17.6364H325.652V27.5909H326.197C327.288 24.3182 329.152 21.7273 331.788 19.8182C334.425 17.9091 337.561 16.9545 341.197 16.9545C344.879 16.9545 348.05 17.9318 350.709 19.8864C353.368 21.8182 354.97 24.3864 355.516 27.5909H356.061C356.947 24.3864 358.834 21.8182 361.72 19.8864C364.607 17.9318 367.993 16.9545 371.879 16.9545C376.902 16.9545 380.97 18.5682 384.084 21.7955C387.22 25.0227 388.788 29.3182 388.788 34.6818V70H369.97V39.4545C369.97 37.1591 369.391 35.3636 368.232 34.0682C367.072 32.75 365.516 32.0909 363.561 32.0909C361.629 32.0909 360.095 32.75 358.959 34.0682C357.845 35.3636 357.288 37.1591 357.288 39.4545V70H339.288V39.4545C339.288 37.1591 338.709 35.3636 337.55 34.0682C336.391 32.75 334.834 32.0909 332.879 32.0909C331.584 32.0909 330.47 32.3864 329.538 32.9773C328.607 33.5682 327.879 34.4205 327.357 35.5341C326.857 36.625 326.607 37.9318 326.607 39.4545V70H307.788ZM423.161 70.9545C417.57 70.9545 412.751 69.8864 408.706 67.75C404.683 65.5909 401.581 62.5 399.399 58.4773C397.24 54.4318 396.161 49.5909 396.161 43.9545C396.161 38.5455 397.251 33.8182 399.433 29.7727C401.615 25.7273 404.695 22.5795 408.672 20.3295C412.649 18.0795 417.342 16.9545 422.751 16.9545C426.706 16.9545 430.286 17.5682 433.49 18.7955C436.695 20.0227 439.433 21.8068 441.706 24.1477C443.979 26.4659 445.729 29.2841 446.956 32.6023C448.183 35.9205 448.797 39.6591 448.797 43.8182V48.1818H402.024V37.8182H431.479C431.456 36.3182 431.07 35 430.32 33.8636C429.592 32.7045 428.604 31.8068 427.354 31.1705C426.126 30.5114 424.729 30.1818 423.161 30.1818C421.638 30.1818 420.24 30.5114 418.967 31.1705C417.695 31.8068 416.672 32.6932 415.899 33.8295C415.149 34.9659 414.751 36.2955 414.706 37.8182V49C414.706 50.6818 415.058 52.1818 415.763 53.5C416.467 54.8182 417.479 55.8523 418.797 56.6023C420.115 57.3523 421.706 57.7273 423.57 57.7273C424.865 57.7273 426.047 57.5455 427.115 57.1818C428.206 56.8182 429.138 56.2955 429.911 55.6136C430.683 54.9091 431.251 54.0682 431.615 53.0909H448.797C448.206 56.7273 446.808 59.8864 444.604 62.5682C442.399 65.2273 439.479 67.2955 435.842 68.7727C432.229 70.2273 428.001 70.9545 423.161 70.9545ZM506.828 17.6364V31.2727H472.328V17.6364H506.828ZM479.01 5.09091H497.828V53.1591C497.828 53.8864 497.953 54.5 498.203 55C498.453 55.4773 498.839 55.8409 499.362 56.0909C499.885 56.3182 500.555 56.4318 501.374 56.4318C501.942 56.4318 502.601 56.3636 503.351 56.2273C504.124 56.0909 504.692 55.9773 505.055 55.8864L507.783 69.1136C506.942 69.3636 505.737 69.6705 504.169 70.0341C502.624 70.3977 500.783 70.6364 498.646 70.75C494.328 70.9773 490.703 70.5341 487.771 69.4205C484.839 68.2841 482.635 66.5 481.158 64.0682C479.68 61.6364 478.964 58.5909 479.01 54.9318V5.09091ZM539.172 70.9545C533.49 70.9545 528.626 69.8295 524.581 67.5795C520.536 65.3068 517.433 62.1477 515.274 58.1023C513.115 54.0341 512.036 49.3182 512.036 43.9545C512.036 38.5909 513.115 33.8864 515.274 29.8409C517.433 25.7727 520.536 22.6136 524.581 20.3636C528.626 18.0909 533.49 16.9545 539.172 16.9545C544.854 16.9545 549.717 18.0909 553.763 20.3636C557.808 22.6136 560.911 25.7727 563.07 29.8409C565.229 33.8864 566.308 38.5909 566.308 43.9545C566.308 49.3182 565.229 54.0341 563.07 58.1023C560.911 62.1477 557.808 65.3068 553.763 67.5795C549.717 69.8295 544.854 70.9545 539.172 70.9545ZM539.308 57.0455C540.899 57.0455 542.274 56.5114 543.433 55.4432C544.592 54.375 545.49 52.8523 546.126 50.875C546.763 48.8977 547.081 46.5455 547.081 43.8182C547.081 41.0682 546.763 38.7159 546.126 36.7614C545.49 34.7841 544.592 33.2614 543.433 32.1932C542.274 31.125 540.899 30.5909 539.308 30.5909C537.626 30.5909 536.183 31.125 534.979 32.1932C533.774 33.2614 532.854 34.7841 532.217 36.7614C531.581 38.7159 531.263 41.0682 531.263 43.8182C531.263 46.5455 531.581 48.8977 532.217 50.875C532.854 52.8523 533.774 54.375 534.979 55.4432C536.183 56.5114 537.626 57.0455 539.308 57.0455ZM624.297 17.6364V31.2727H589.797V17.6364H624.297ZM596.479 5.09091H615.297V53.1591C615.297 53.8864 615.422 54.5 615.672 55C615.922 55.4773 616.308 55.8409 616.831 56.0909C617.354 56.3182 618.024 56.4318 618.842 56.4318C619.411 56.4318 620.07 56.3636 620.82 56.2273C621.592 56.0909 622.161 55.9773 622.524 55.8864L625.251 69.1136C624.411 69.3636 623.206 69.6705 621.638 70.0341C620.092 70.3977 618.251 70.6364 616.115 70.75C611.797 70.9773 608.172 70.5341 605.24 69.4205C602.308 68.2841 600.104 66.5 598.626 64.0682C597.149 61.6364 596.433 58.5909 596.479 54.9318V5.09091ZM651.919 40.5455V70H633.101V0.181816H651.237V27.5909H651.783C652.964 24.25 654.93 21.6477 657.68 19.7841C660.43 17.8977 663.737 16.9545 667.601 16.9545C671.305 16.9545 674.521 17.7955 677.249 19.4773C679.999 21.1591 682.124 23.4773 683.624 26.4318C685.146 29.3864 685.896 32.7727 685.874 36.5909V70H667.055V40.5455C667.078 37.9545 666.43 35.9205 665.112 34.4432C663.817 32.9659 661.964 32.2273 659.555 32.2273C658.033 32.2273 656.692 32.5682 655.533 33.25C654.396 33.9091 653.51 34.8636 652.874 36.1136C652.26 37.3409 651.942 38.8182 651.919 40.5455ZM720.254 70.9545C714.663 70.9545 709.845 69.8864 705.8 67.75C701.777 65.5909 698.675 62.5 696.493 58.4773C694.334 54.4318 693.254 49.5909 693.254 43.9545C693.254 38.5455 694.345 33.8182 696.527 29.7727C698.709 25.7273 701.788 22.5795 705.766 20.3295C709.743 18.0795 714.436 16.9545 719.845 16.9545C723.8 16.9545 727.379 17.5682 730.584 18.7955C733.788 20.0227 736.527 21.8068 738.8 24.1477C741.072 26.4659 742.822 29.2841 744.05 32.6023C745.277 35.9205 745.891 39.6591 745.891 43.8182V48.1818H699.118V37.8182H728.572C728.55 36.3182 728.163 35 727.413 33.8636C726.686 32.7045 725.697 31.8068 724.447 31.1705C723.22 30.5114 721.822 30.1818 720.254 30.1818C718.732 30.1818 717.334 30.5114 716.061 31.1705C714.788 31.8068 713.766 32.6932 712.993 33.8295C712.243 34.9659 711.845 36.2955 711.8 37.8182V49C711.8 50.6818 712.152 52.1818 712.857 53.5C713.561 54.8182 714.572 55.8523 715.891 56.6023C717.209 57.3523 718.8 57.7273 720.663 57.7273C721.959 57.7273 723.141 57.5455 724.209 57.1818C725.3 56.8182 726.232 56.2955 727.004 55.6136C727.777 54.9091 728.345 54.0682 728.709 53.0909H745.891C745.3 56.7273 743.902 59.8864 741.697 62.5682C739.493 65.2273 736.572 67.2955 732.936 68.7727C729.322 70.2273 725.095 70.9545 720.254 70.9545ZM98.6534 128.545V158H79.8352V105.636H97.6989V115.591H98.2443C99.3807 112.273 101.381 109.67 104.244 107.784C107.131 105.898 110.494 104.955 114.335 104.955C118.04 104.955 121.256 105.807 123.983 107.511C126.733 109.193 128.858 111.511 130.358 114.466C131.881 117.42 132.631 120.795 132.608 124.591V158H113.79V128.545C113.813 125.955 113.153 123.92 111.812 122.443C110.494 120.966 108.653 120.227 106.29 120.227C104.744 120.227 103.392 120.568 102.233 121.25C101.097 121.909 100.222 122.864 99.608 124.114C98.9943 125.341 98.6761 126.818 98.6534 128.545ZM166.989 158.955C161.398 158.955 156.58 157.886 152.534 155.75C148.511 153.591 145.409 150.5 143.227 146.477C141.068 142.432 139.989 137.591 139.989 131.955C139.989 126.545 141.08 121.818 143.261 117.773C145.443 113.727 148.523 110.58 152.5 108.33C156.477 106.08 161.17 104.955 166.58 104.955C170.534 104.955 174.114 105.568 177.318 106.795C180.523 108.023 183.261 109.807 185.534 112.148C187.807 114.466 189.557 117.284 190.784 120.602C192.011 123.92 192.625 127.659 192.625 131.818V136.182H145.852V125.818H175.307C175.284 124.318 174.898 123 174.148 121.864C173.42 120.705 172.432 119.807 171.182 119.17C169.955 118.511 168.557 118.182 166.989 118.182C165.466 118.182 164.068 118.511 162.795 119.17C161.523 119.807 160.5 120.693 159.727 121.83C158.977 122.966 158.58 124.295 158.534 125.818V137C158.534 138.682 158.886 140.182 159.591 141.5C160.295 142.818 161.307 143.852 162.625 144.602C163.943 145.352 165.534 145.727 167.398 145.727C168.693 145.727 169.875 145.545 170.943 145.182C172.034 144.818 172.966 144.295 173.739 143.614C174.511 142.909 175.08 142.068 175.443 141.091H192.625C192.034 144.727 190.636 147.886 188.432 150.568C186.227 153.227 183.307 155.295 179.67 156.773C176.057 158.227 171.83 158.955 166.989 158.955ZM215.969 105.636L223.605 121.864L231.651 105.636H250.332L236.287 131.818L251.014 158H232.469L223.605 141.364L215.014 158H196.196L211.06 131.818L197.151 105.636H215.969ZM288.25 105.636V119.273H253.75V105.636H288.25ZM260.432 93.0909H279.25V141.159C279.25 141.886 279.375 142.5 279.625 143C279.875 143.477 280.261 143.841 280.784 144.091C281.307 144.318 281.977 144.432 282.795 144.432C283.364 144.432 284.023 144.364 284.773 144.227C285.545 144.091 286.114 143.977 286.477 143.886L289.205 157.114C288.364 157.364 287.159 157.67 285.591 158.034C284.045 158.398 282.205 158.636 280.068 158.75C275.75 158.977 272.125 158.534 269.193 157.42C266.261 156.284 264.057 154.5 262.58 152.068C261.102 149.636 260.386 146.591 260.432 142.932V93.0909Z" fill="white"/>
<path d="M356.099 88.1818H375.054V132.909C375.054 138.227 373.781 142.83 371.236 146.716C368.713 150.58 365.19 153.568 360.668 155.682C356.145 157.773 350.895 158.818 344.918 158.818C338.895 158.818 333.622 157.773 329.099 155.682C324.577 153.568 321.054 150.58 318.531 146.716C316.031 142.83 314.781 138.227 314.781 132.909V88.1818H333.736V131.273C333.736 133.432 334.213 135.364 335.168 137.068C336.122 138.75 337.44 140.068 339.122 141.023C340.827 141.977 342.759 142.455 344.918 142.455C347.099 142.455 349.031 141.977 350.713 141.023C352.395 140.068 353.713 138.75 354.668 137.068C355.622 135.364 356.099 133.432 356.099 131.273V88.1818ZM403.153 128.545V158H384.335V105.636H402.199V115.591H402.744C403.881 112.273 405.881 109.67 408.744 107.784C411.631 105.898 414.994 104.955 418.835 104.955C422.54 104.955 425.756 105.807 428.483 107.511C431.233 109.193 433.358 111.511 434.858 114.466C436.381 117.42 437.131 120.795 437.108 124.591V158H418.29V128.545C418.313 125.955 417.653 123.92 416.312 122.443C414.994 120.966 413.153 120.227 410.79 120.227C409.244 120.227 407.892 120.568 406.733 121.25C405.597 121.909 404.722 122.864 404.108 124.114C403.494 125.341 403.176 126.818 403.153 128.545ZM446.398 158V105.636H465.216V158H446.398ZM455.807 100.182C453.261 100.182 451.08 99.3409 449.261 97.6591C447.443 95.9773 446.534 93.9545 446.534 91.5909C446.534 89.2273 447.443 87.2045 449.261 85.5227C451.08 83.8409 453.261 83 455.807 83C458.375 83 460.557 83.8409 462.352 85.5227C464.17 87.2045 465.08 89.2273 465.08 91.5909C465.08 93.9545 464.17 95.9773 462.352 97.6591C460.557 99.3409 458.375 100.182 455.807 100.182ZM500.031 158.955C494.349 158.955 489.486 157.83 485.44 155.58C481.395 153.307 478.293 150.148 476.134 146.102C473.974 142.034 472.895 137.318 472.895 131.955C472.895 126.591 473.974 121.886 476.134 117.841C478.293 113.773 481.395 110.614 485.44 108.364C489.486 106.091 494.349 104.955 500.031 104.955C505.168 104.955 509.611 105.886 513.361 107.75C517.134 109.591 520.054 112.205 522.122 115.591C524.19 118.955 525.236 122.909 525.259 127.455H507.804C507.554 124.705 506.759 122.614 505.418 121.182C504.099 119.727 502.395 119 500.304 119C498.668 119 497.236 119.477 496.009 120.432C494.781 121.364 493.827 122.784 493.145 124.693C492.463 126.58 492.122 128.955 492.122 131.818C492.122 134.682 492.463 137.068 493.145 138.977C493.827 140.864 494.781 142.284 496.009 143.239C497.236 144.17 498.668 144.636 500.304 144.636C501.69 144.636 502.918 144.318 503.986 143.682C505.054 143.023 505.918 142.068 506.577 140.818C507.259 139.545 507.668 138 507.804 136.182H525.259C525.19 140.795 524.134 144.818 522.088 148.25C520.043 151.659 517.145 154.295 513.395 156.159C509.668 158.023 505.213 158.955 500.031 158.955ZM558.25 158.955C552.568 158.955 547.705 157.83 543.659 155.58C539.614 153.307 536.511 150.148 534.352 146.102C532.193 142.034 531.114 137.318 531.114 131.955C531.114 126.591 532.193 121.886 534.352 117.841C536.511 113.773 539.614 110.614 543.659 108.364C547.705 106.091 552.568 104.955 558.25 104.955C563.932 104.955 568.795 106.091 572.841 108.364C576.886 110.614 579.989 113.773 582.148 117.841C584.307 121.886 585.386 126.591 585.386 131.955C585.386 137.318 584.307 142.034 582.148 146.102C579.989 150.148 576.886 153.307 572.841 155.58C568.795 157.83 563.932 158.955 558.25 158.955ZM558.386 145.045C559.977 145.045 561.352 144.511 562.511 143.443C563.67 142.375 564.568 140.852 565.205 138.875C565.841 136.898 566.159 134.545 566.159 131.818C566.159 129.068 565.841 126.716 565.205 124.761C564.568 122.784 563.67 121.261 562.511 120.193C561.352 119.125 559.977 118.591 558.386 118.591C556.705 118.591 555.261 119.125 554.057 120.193C552.852 121.261 551.932 122.784 551.295 124.761C550.659 126.716 550.341 129.068 550.341 131.818C550.341 134.545 550.659 136.898 551.295 138.875C551.932 140.852 552.852 142.375 554.057 143.443C555.261 144.511 556.705 145.045 558.386 145.045ZM593.023 158V105.636H611.295V115.591H611.841C612.795 111.909 614.307 109.216 616.375 107.511C618.466 105.807 620.909 104.955 623.705 104.955C624.523 104.955 625.33 105.023 626.125 105.159C626.943 105.273 627.727 105.443 628.477 105.67V121.727C627.545 121.409 626.398 121.17 625.034 121.011C623.67 120.852 622.5 120.773 621.523 120.773C619.682 120.773 618.023 121.193 616.545 122.034C615.091 122.852 613.943 124.011 613.102 125.511C612.261 126.989 611.841 128.727 611.841 130.727V158H593.023ZM653.466 128.545V158H634.648V105.636H652.511V115.591H653.057C654.193 112.273 656.193 109.67 659.057 107.784C661.943 105.898 665.307 104.955 669.148 104.955C672.852 104.955 676.068 105.807 678.795 107.511C681.545 109.193 683.67 111.511 685.17 114.466C686.693 117.42 687.443 120.795 687.42 124.591V158H668.602V128.545C668.625 125.955 667.966 123.92 666.625 122.443C665.307 120.966 663.466 120.227 661.102 120.227C659.557 120.227 658.205 120.568 657.045 121.25C655.909 121.909 655.034 122.864 654.42 124.114C653.807 125.341 653.489 126.818 653.466 128.545Z" fill="white"/>
<path d="M356.099 88.1818H375.054V132.909C375.054 138.227 373.781 142.83 371.236 146.716C368.713 150.58 365.19 153.568 360.668 155.682C356.145 157.773 350.895 158.818 344.918 158.818C338.895 158.818 333.622 157.773 329.099 155.682C324.577 153.568 321.054 150.58 318.531 146.716C316.031 142.83 314.781 138.227 314.781 132.909V88.1818H333.736V131.273C333.736 133.432 334.213 135.364 335.168 137.068C336.122 138.75 337.44 140.068 339.122 141.023C340.827 141.977 342.759 142.455 344.918 142.455C347.099 142.455 349.031 141.977 350.713 141.023C352.395 140.068 353.713 138.75 354.668 137.068C355.622 135.364 356.099 133.432 356.099 131.273V88.1818ZM403.153 128.545V158H384.335V105.636H402.199V115.591H402.744C403.881 112.273 405.881 109.67 408.744 107.784C411.631 105.898 414.994 104.955 418.835 104.955C422.54 104.955 425.756 105.807 428.483 107.511C431.233 109.193 433.358 111.511 434.858 114.466C436.381 117.42 437.131 120.795 437.108 124.591V158H418.29V128.545C418.313 125.955 417.653 123.92 416.312 122.443C414.994 120.966 413.153 120.227 410.79 120.227C409.244 120.227 407.892 120.568 406.733 121.25C405.597 121.909 404.722 122.864 404.108 124.114C403.494 125.341 403.176 126.818 403.153 128.545ZM446.398 158V105.636H465.216V158H446.398ZM455.807 100.182C453.261 100.182 451.08 99.3409 449.261 97.6591C447.443 95.9773 446.534 93.9545 446.534 91.5909C446.534 89.2273 447.443 87.2045 449.261 85.5227C451.08 83.8409 453.261 83 455.807 83C458.375 83 460.557 83.8409 462.352 85.5227C464.17 87.2045 465.08 89.2273 465.08 91.5909C465.08 93.9545 464.17 95.9773 462.352 97.6591C460.557 99.3409 458.375 100.182 455.807 100.182ZM500.031 158.955C494.349 158.955 489.486 157.83 485.44 155.58C481.395 153.307 478.293 150.148 476.134 146.102C473.974 142.034 472.895 137.318 472.895 131.955C472.895 126.591 473.974 121.886 476.134 117.841C478.293 113.773 481.395 110.614 485.44 108.364C489.486 106.091 494.349 104.955 500.031 104.955C505.168 104.955 509.611 105.886 513.361 107.75C517.134 109.591 520.054 112.205 522.122 115.591C524.19 118.955 525.236 122.909 525.259 127.455H507.804C507.554 124.705 506.759 122.614 505.418 121.182C504.099 119.727 502.395 119 500.304 119C498.668 119 497.236 119.477 496.009 120.432C494.781 121.364 493.827 122.784 493.145 124.693C492.463 126.58 492.122 128.955 492.122 131.818C492.122 134.682 492.463 137.068 493.145 138.977C493.827 140.864 494.781 142.284 496.009 143.239C497.236 144.17 498.668 144.636 500.304 144.636C501.69 144.636 502.918 144.318 503.986 143.682C505.054 143.023 505.918 142.068 506.577 140.818C507.259 139.545 507.668 138 507.804 136.182H525.259C525.19 140.795 524.134 144.818 522.088 148.25C520.043 151.659 517.145 154.295 513.395 156.159C509.668 158.023 505.213 158.955 500.031 158.955ZM558.25 158.955C552.568 158.955 547.705 157.83 543.659 155.58C539.614 153.307 536.511 150.148 534.352 146.102C532.193 142.034 531.114 137.318 531.114 131.955C531.114 126.591 532.193 121.886 534.352 117.841C536.511 113.773 539.614 110.614 543.659 108.364C547.705 106.091 552.568 104.955 558.25 104.955C563.932 104.955 568.795 106.091 572.841 108.364C576.886 110.614 579.989 113.773 582.148 117.841C584.307 121.886 585.386 126.591 585.386 131.955C585.386 137.318 584.307 142.034 582.148 146.102C579.989 150.148 576.886 153.307 572.841 155.58C568.795 157.83 563.932 158.955 558.25 158.955ZM558.386 145.045C559.977 145.045 561.352 144.511 562.511 143.443C563.67 142.375 564.568 140.852 565.205 138.875C565.841 136.898 566.159 134.545 566.159 131.818C566.159 129.068 565.841 126.716 565.205 124.761C564.568 122.784 563.67 121.261 562.511 120.193C561.352 119.125 559.977 118.591 558.386 118.591C556.705 118.591 555.261 119.125 554.057 120.193C552.852 121.261 551.932 122.784 551.295 124.761C550.659 126.716 550.341 129.068 550.341 131.818C550.341 134.545 550.659 136.898 551.295 138.875C551.932 140.852 552.852 142.375 554.057 143.443C555.261 144.511 556.705 145.045 558.386 145.045ZM593.023 158V105.636H611.295V115.591H611.841C612.795 111.909 614.307 109.216 616.375 107.511C618.466 105.807 620.909 104.955 623.705 104.955C624.523 104.955 625.33 105.023 626.125 105.159C626.943 105.273 627.727 105.443 628.477 105.67V121.727C627.545 121.409 626.398 121.17 625.034 121.011C623.67 120.852 622.5 120.773 621.523 120.773C619.682 120.773 618.023 121.193 616.545 122.034C615.091 122.852 613.943 124.011 613.102 125.511C612.261 126.989 611.841 128.727 611.841 130.727V158H593.023ZM653.466 128.545V158H634.648V105.636H652.511V115.591H653.057C654.193 112.273 656.193 109.67 659.057 107.784C661.943 105.898 665.307 104.955 669.148 104.955C672.852 104.955 676.068 105.807 678.795 107.511C681.545 109.193 683.67 111.511 685.17 114.466C686.693 117.42 687.443 120.795 687.42 124.591V158H668.602V128.545C668.625 125.955 667.966 123.92 666.625 122.443C665.307 120.966 663.466 120.227 661.102 120.227C659.557 120.227 658.205 120.568 657.045 121.25C655.909 121.909 655.034 122.864 654.42 124.114C653.807 125.341 653.489 126.818 653.466 128.545Z" fill="url(#paint0_linear_1_2)"/>
<defs>
<linearGradient id="paint0_linear_1_2" x1="470.5" y1="167" x2="710" y2="167" gradientUnits="userSpaceOnUse">
<stop stop-color="#C71585"/>
<stop offset="1" stop-color="#FF69B4"/>
</linearGradient>
</defs>
</svg>
